<svg width="24" height="24" viewBox="0 0 24 24" fill="none" xmlns="http://www.w3.org/2000/svg">
<path fill-rule="evenodd" clip-rule="evenodd" d="M4.33327 8.28405C4 9.00866 4 9.83302 4 11.4817V16.6308C4 18.9204 4 20.0653 4.71131 20.7766C5.38072 21.446 6.43408 21.4854 8.46425 21.4878V15.4166C8.46425 14.1936 9.45562 13.2023 10.6785 13.2023H14.3214C15.5443 13.2023 16.5357 14.1936 16.5357 15.4166V21.4878C18.5659 21.4854 19.6193 21.446 20.2887 20.7766C21 20.0653 21 18.9204 21 16.6308V11.4817C21 9.83302 21 9.00866 20.6667 8.28405C20.3335 7.55944 19.7076 7.02296 18.4558 5.95L17.2415 4.90918C14.9789 2.96981 13.8476 2.00012 12.5 2.00012C11.1524 2.00012 10.0211 2.96981 7.75852 4.90918L6.54423 5.95C5.29244 7.02296 4.66655 7.55944 4.33327 8.28405ZM14.5357 21.4879V15.4166C14.5357 15.2982 14.4397 15.2023 14.3214 15.2023H10.6785C10.5602 15.2023 10.4642 15.2982 10.4642 15.4166V21.4879H14.5357Z" fill="#242730"/>
</svg>
